REM DIRINDEX 1\2,1\3,1\4
REM DIRNAME cjc085,folder01,folder02,folder03
TITLE ""
FILE "Disc1Track09.mp3" MP3
  TRACK 01 AUDIO
    TITLE "0:"
    INDEX 01 00:00:00
  TRACK 02 AUDIO
    TITLE "4:cjc085_0455"
    INDEX 01 00:05:16
  TRACK 03 AUDIO
    TITLE "0:"
    INDEX 01 00:07:17
  TRACK 04 AUDIO
    TITLE "4:cjc085_0456"
    INDEX 01 00:07:72
  TRACK 05 AUDIO
    TITLE "2:cjc085_0457"
    INDEX 01 00:10:16
  TRACK 06 AUDIO
    TITLE "0:"
    INDEX 01 00:14:47
  TRACK 07 AUDIO
    TITLE "3:cjc085_0458"
    INDEX 01 00:15:50
  TRACK 08 AUDIO
    TITLE "0:"
    INDEX 01 00:19:01
  TRACK 09 AUDIO
    TITLE "4:cjc085_0459"
    INDEX 01 00:19:54
  TRACK 10 AUDIO
    TITLE "2:cjc085_0460"
    INDEX 01 00:21:64
  TRACK 11 AUDIO
    TITLE "0:"
    INDEX 01 00:24:49
  TRACK 12 AUDIO
    TITLE "3:cjc085_0461"
    INDEX 01 00:26:28
  TRACK 13 AUDIO
    TITLE "0:"
    INDEX 01 00:30:34
  TRACK 14 AUDIO
    TITLE "4:cjc085_0462"
    INDEX 01 00:31:16
  TRACK 15 AUDIO
    TITLE "2:cjc085_0463"
    INDEX 01 00:33:32
  TRACK 16 AUDIO
    TITLE "0:"
    INDEX 01 00:38:33
  TRACK 17 AUDIO
    TITLE "3:cjc085_0464"
    INDEX 01 00:39:19
  TRACK 18 AUDIO
    TITLE "0:"
    INDEX 01 00:43:44
  TRACK 19 AUDIO
    TITLE "4:cjc085_0465"
    INDEX 01 00:44:52
  TRACK 20 AUDIO
    TITLE "2:cjc085_0466"
    INDEX 01 00:46:35
  TRACK 21 AUDIO
    TITLE "0:"
    INDEX 01 00:51:03
  TRACK 22 AUDIO
    TITLE "3:cjc085_0467"
    INDEX 01 00:51:69
  TRACK 23 AUDIO
    TITLE "0:"
    INDEX 01 00:56:16
  TRACK 24 AUDIO
    TITLE "4:cjc085_0468"
    INDEX 01 00:56:71
  TRACK 25 AUDIO
    TITLE "2:cjc085_0469"
    INDEX 01 00:58:66
  TRACK 26 AUDIO
    TITLE "0:"
    INDEX 01 01:01:44
  TRACK 27 AUDIO
    TITLE "3:cjc085_0470"
    INDEX 01 01:01:72
  TRACK 28 AUDIO
    TITLE "0:"
    INDEX 01 01:05:01
  TRACK 29 AUDIO
    TITLE "4:cjc085_0471"
    INDEX 01 01:05:46
  TRACK 30 AUDIO
    TITLE "2:cjc085_0472"
    INDEX 01 01:07:55
  TRACK 31 AUDIO
    TITLE "0:"
    INDEX 01 01:12:44
  TRACK 32 AUDIO
    TITLE "3:cjc085_0473"
    INDEX 01 01:12:62
  TRACK 33 AUDIO
    TITLE "0:"
    INDEX 01 01:16:14
  TRACK 34 AUDIO
    TITLE "4:cjc085_0474"
    INDEX 01 01:17:08
  TRACK 35 AUDIO
    TITLE "2:cjc085_0475"
    INDEX 01 01:19:21
  TRACK 36 AUDIO
    TITLE "0:"
    INDEX 01 01:24:04
  TRACK 37 AUDIO
    TITLE "3:cjc085_0476"
    INDEX 01 01:24:16
  TRACK 38 AUDIO
    TITLE "0:"
    INDEX 01 01:28:12
  TRACK 39 AUDIO
    TITLE "4:cjc085_0477"
    INDEX 01 01:29:11
  TRACK 40 AUDIO
    TITLE "2:cjc085_0478"
    INDEX 01 01:31:20
  TRACK 41 AUDIO
    TITLE "0:"
    INDEX 01 01:34:24
  TRACK 42 AUDIO
    TITLE "3:cjc085_0479"
    INDEX 01 01:35:04
  TRACK 43 AUDIO
    TITLE "0:"
    INDEX 01 01:38:55
  TRACK 44 AUDIO
    TITLE "4:cjc085_0480"
    INDEX 01 01:39:27
  TRACK 45 AUDIO
    TITLE "2:cjc085_0481"
    INDEX 01 01:41:28
  TRACK 46 AUDIO
    TITLE "0:"
    INDEX 01 01:44:15
  TRACK 47 AUDIO
    TITLE "3:cjc085_0482"
    INDEX 01 01:44:32
  TRACK 48 AUDIO
    TITLE "0:"
    INDEX 01 01:47:33
  TRACK 49 AUDIO
    TITLE "4:cjc085_0483"
    INDEX 01 01:48:36
  TRACK 50 AUDIO
    TITLE "2:cjc085_0484"
    INDEX 01 01:50:37
  TRACK 51 AUDIO
    TITLE "0:"
    INDEX 01 01:54:44
  TRACK 52 AUDIO
    TITLE "3:cjc085_0485"
    INDEX 01 01:54:58
  TRACK 53 AUDIO
    TITLE "0:"
    INDEX 01 01:59:08
  TRACK 54 AUDIO
    TITLE "4:cjc085_0486"
    INDEX 01 01:59:55
  TRACK 55 AUDIO
    TITLE "2:cjc085_0487"
    INDEX 01 02:01:45
  TRACK 56 AUDIO
    TITLE "0:"
    INDEX 01 02:06:20
  TRACK 57 AUDIO
    TITLE "3:cjc085_0488"
    INDEX 01 02:06:57
  TRACK 58 AUDIO
    TITLE "0:"
    INDEX 01 02:10:51
  TRACK 59 AUDIO
    TITLE "4:cjc085_0489"
    INDEX 01 02:11:06
  TRACK 60 AUDIO
    TITLE "2:cjc085_0490"
    INDEX 01 02:13:05
  TRACK 61 AUDIO
    TITLE "0:"
    INDEX 01 02:16:44
  TRACK 62 AUDIO
    TITLE "3:cjc085_0491"
    INDEX 01 02:16:64
  TRACK 63 AUDIO
    TITLE "0:"
    INDEX 01 02:20:54
  TRACK 64 AUDIO
    TITLE "4:cjc085_0492"
    INDEX 01 02:21:69
  TRACK 65 AUDIO
    TITLE "2:cjc085_0493"
    INDEX 01 02:23:54
  TRACK 66 AUDIO
    TITLE "0:"
    INDEX 01 02:26:72
  TRACK 67 AUDIO
    TITLE "3:cjc085_0494"
    INDEX 01 02:27:46
  TRACK 68 AUDIO
    TITLE "0:"
    INDEX 01 02:31:10
  TRACK 69 AUDIO
    TITLE "4:cjc085_0495"
    INDEX 01 02:31:71
  TRACK 70 AUDIO
    TITLE "2:cjc085_0496"
    INDEX 01 02:33:56
  TRACK 71 AUDIO
    TITLE "0:"
    INDEX 01 02:37:31
  TRACK 72 AUDIO
    TITLE "3:cjc085_0497"
    INDEX 01 02:37:50
  TRACK 73 AUDIO
    TITLE "0:"
    INDEX 01 02:40:70
  TRACK 74 AUDIO
    TITLE "4:cjc085_0498"
    INDEX 01 02:41:54
  TRACK 75 AUDIO
    TITLE "2:cjc085_0499"
    INDEX 01 02:43:45
  TRACK 76 AUDIO
    TITLE "0:"
    INDEX 01 02:47:15
  TRACK 77 AUDIO
    TITLE "3:cjc085_0500"
    INDEX 01 02:47:52
  TRACK 78 AUDIO
    TITLE "0:"
    INDEX 01 02:52:05
  TRACK 79 AUDIO
    TITLE "4:cjc085_0501"
    INDEX 01 02:52:65
  TRACK 80 AUDIO
    TITLE "2:cjc085_0502"
    INDEX 01 02:54:74
  TRACK 81 AUDIO
    TITLE "0:"
    INDEX 01 02:59:38
  TRACK 82 AUDIO
    TITLE "3:cjc085_0503"
    INDEX 01 03:00:04
  TRACK 83 AUDIO
    TITLE "0:"
    INDEX 01 03:03:06
  TRACK 84 AUDIO
    TITLE "4:cjc085_0504"
    INDEX 01 03:03:44
  TRACK 85 AUDIO
    TITLE "2:cjc085_0505"
    INDEX 01 03:05:54
  TRACK 86 AUDIO
    TITLE "0:"
    INDEX 01 03:11:04
  TRACK 87 AUDIO
    TITLE "3:cjc085_0506"
    INDEX 01 03:11:31
  TRACK 88 AUDIO
    TITLE "0:"
    INDEX 01 03:16:01
  TRACK 89 AUDIO
    TITLE "4:cjc085_0507"
    INDEX 01 03:16:19
  TRACK 90 AUDIO
    TITLE "2:cjc085_0508"
    INDEX 01 03:18:41
  TRACK 91 AUDIO
    TITLE "0:"
    INDEX 01 03:22:68
  TRACK 92 AUDIO
    TITLE "3:cjc085_0509"
    INDEX 01 03:23:21
  TRACK 93 AUDIO
    TITLE "0:"
    INDEX 01 03:26:72
  TRACK 94 AUDIO
    TITLE "4:cjc085_0510"
    INDEX 01 03:27:46
  TRACK 95 AUDIO
    TITLE "2:cjc085_0511"
    INDEX 01 03:29:43
  TRACK 96 AUDIO
    TITLE "0:"
    INDEX 01 03:32:43
  TRACK 97 AUDIO
    TITLE "3:cjc085_0512"
    INDEX 01 03:33:08
  TRACK 98 AUDIO
    TITLE "0:"
    INDEX 01 03:35:50
  TRACK 99 AUDIO
    TITLE "4:cjc085_0513"
    INDEX 01 03:36:55
  TRACK 100 AUDIO
    TITLE "2:cjc085_0514"
    INDEX 01 03:39:04
  TRACK 101 AUDIO
    TITLE "0:"
    INDEX 01 03:45:54
  TRACK 102 AUDIO
    TITLE "3:cjc085_0515"
    INDEX 01 03:45:71
  TRACK 103 AUDIO
    TITLE "0:"
    INDEX 01 03:50:53
  TRACK 104 AUDIO
    TITLE "4:cjc085_0516"
    INDEX 01 03:51:35
  TRACK 105 AUDIO
    TITLE "2:cjc085_0517"
    INDEX 01 03:53:59
  TRACK 106 AUDIO
    TITLE "0:"
    INDEX 01 03:58:23
  TRACK 107 AUDIO
    TITLE "3:cjc085_0518"
    INDEX 01 03:58:53
  TRACK 108 AUDIO
    TITLE "0:"
    INDEX 01 04:03:28
  TRACK 109 AUDIO
    TITLE "4:cjc085_0519"
    INDEX 01 04:04:55
  TRACK 110 AUDIO
    TITLE "2:cjc085_0520"
    INDEX 01 04:06:74
  TRACK 111 AUDIO
    TITLE "0:"
    INDEX 01 04:11:26
  TRACK 112 AUDIO
    TITLE "3:cjc085_0521"
    INDEX 01 04:11:47
  TRACK 113 AUDIO
    TITLE "0:"
    INDEX 01 04:15:61
  TRACK 114 AUDIO
    TITLE "4:cjc085_0522"
    INDEX 01 04:16:70
  TRACK 115 AUDIO
    TITLE "2:cjc085_0523"
    INDEX 01 04:19:59
  TRACK 116 AUDIO
    TITLE "0:"
    INDEX 01 04:25:08
  TRACK 117 AUDIO
    TITLE "3:cjc085_0524"
    INDEX 01 04:25:30
  TRACK 118 AUDIO
    TITLE "0:"
    INDEX 01 04:29:57
  TRACK 119 AUDIO
    TITLE "4:cjc085_0525"
    INDEX 01 04:30:09
  TRACK 120 AUDIO
    TITLE "2:cjc085_0526"
    INDEX 01 04:32:40
  TRACK 121 AUDIO
    TITLE "0:"
    INDEX 01 04:37:15
  TRACK 122 AUDIO
    TITLE "3:cjc085_0527"
    INDEX 01 04:37:58
  TRACK 123 AUDIO
    TITLE "0:"
    INDEX 01 04:40:59
  TRACK 124 AUDIO
    TITLE "4:cjc085_0528"
    INDEX 01 04:41:66
  TRACK 125 AUDIO
    TITLE "2:cjc085_0529"
    INDEX 01 04:44:00
  TRACK 126 AUDIO
    TITLE "0:"
    INDEX 01 04:49:01
  TRACK 127 AUDIO
    TITLE "3:cjc085_0530"
    INDEX 01 04:49:30
  TRACK 128 AUDIO
    TITLE "0:"
    INDEX 01 04:52:56
  TRACK 129 AUDIO
    TITLE "4:cjc085_0531"
    INDEX 01 04:53:56
  TRACK 130 AUDIO
    TITLE "2:cjc085_0532"
    INDEX 01 04:56:05
  TRACK 131 AUDIO
    TITLE "0:"
    INDEX 01 04:59:56
  TRACK 132 AUDIO
    TITLE "3:cjc085_0533"
    INDEX 01 05:00:20
  TRACK 133 AUDIO
    TITLE "0:"
    INDEX 01 05:03:27
  TRACK 134 AUDIO
    TITLE "4:cjc085_0534"
    INDEX 01 05:04:32
  TRACK 135 AUDIO
    TITLE "2:cjc085_0535"
    INDEX 01 05:06:46
  TRACK 136 AUDIO
    TITLE "0:"
    INDEX 01 05:12:69
  TRACK 137 AUDIO
    TITLE "3:cjc085_0536"
    INDEX 01 05:13:27
  TRACK 138 AUDIO
    TITLE "0:"
    INDEX 01 05:18:52
  TRACK 139 AUDIO
    TITLE "4:cjc085_0537"
    INDEX 01 05:19:18
  TRACK 140 AUDIO
    TITLE "2:cjc085_0538"
    INDEX 01 05:21:50
  TRACK 141 AUDIO
    TITLE "0:"
    INDEX 01 05:26:18
  TRACK 142 AUDIO
    TITLE "3:cjc085_0539"
    INDEX 01 05:26:59
  TRACK 143 AUDIO
    TITLE "0:"
    INDEX 01 05:30:37
